<svg width="114" height="46" viewBox="0 0 114 46" fill="none" xmlns="http://www.w3.org/2000/svg">
<path d="M60.9667 9.46667H57.9L56.1333 22H52.9333L54.6667 9.46667H51.5667L51.9 6.86667H61.3667L60.9667 9.46667ZM68.2732 9.16667C68.1176 9.16667 67.9621 9.16667 67.8065 9.16667C67.651 9.16667 67.4843 9.17778 67.3065 9.2L66.5065 14.7H67.4065C68.4732 14.7 69.2176 14.2111 69.6398 13.2333C69.7954 12.8778 69.9176 12.4333 70.0065 11.9C70.251 10.0778 69.6732 9.16667 68.2732 9.16667ZM64.5398 6.86667L68.5065 6.76667C70.4621 6.76667 71.7954 7.2 72.5065 8.06667C73.2398 8.93333 73.4732 10.2111 73.2065 11.9C72.9621 13.7 72.2732 15.0444 71.1398 15.9333C70.1843 16.6667 68.8954 17.0333 67.2732 17.0333C67.0954 17.0333 66.9176 17.0333 66.7398 17.0333C66.5621 17.0333 66.3843 17.0222 66.2065 17L65.5065 22H62.4065L64.5398 6.86667ZM80.3647 9.06667C80.3647 9.06667 80.0425 9.07778 79.398 9.1L78.8314 13.5H79.5647C81.0758 13.5 81.9425 12.7222 82.1647 11.1667C82.2092 10.5 82.1203 9.98889 81.898 9.63333C81.6758 9.25556 81.1647 9.06667 80.3647 9.06667ZM77.898 19.8L78.6314 19.8333C79.5425 19.8333 80.2425 19.6667 80.7314 19.3333C81.2203 19 81.5314 18.3778 81.6647 17.4667C81.8647 16.0667 81.1314 15.3667 79.4647 15.3667H78.998C78.8425 15.3667 78.698 15.3778 78.5647 15.4L77.898 19.8ZM76.698 6.86667L80.5647 6.76667C82.4092 6.76667 83.7092 7.05556 84.4647 7.63333C85.2203 8.18889 85.4869 9.18889 85.2647 10.6333C85.1314 11.5 84.8425 12.2333 84.398 12.8333C83.9536 13.4111 83.4869 13.8444 82.998 14.1333C84.4425 14.5556 85.0536 15.7222 84.8314 17.6333C84.5869 19.1889 83.9647 20.3333 82.9647 21.0667C81.9869 21.7778 80.5203 22.1333 78.5647 22.1333C77.7425 22.1333 76.9647 22.1111 76.2314 22.0667C75.5203 22.0222 74.9647 22 74.5647 22L76.698 6.86667Z" fill="#0075FF"/>
<path d="M1 37.8301V8.95119L6.67073 3.15149H34.7805L41 8.95119V37.8301L34.7805 43.1515H6.67073L1 37.8301Z" stroke="#0075FF" stroke-width="2"/>
<path d="M6 34.1605V12.5013L10.253 8.15155H31.3354L36 12.5013V34.1605L31.3354 38.1515H10.253L6 34.1605Z" stroke="#0075FF" stroke-width="2"/>
<path d="M11 30.4909V16.0514L13.8354 13.1516H27.8902L31 16.0514V30.4909L27.8902 33.1516H13.8354L11 30.4909Z" stroke="#0075FF" stroke-width="2"/>
<path d="M1.09998 37.9015L10.8 30.5015" stroke="#0075FF"/>
<path d="M6.75 43.1515L13.95 33.3015" stroke="#0075FF"/>
<path d="M1.45001 9.15149L11 16.2515" stroke="#0075FF"/>
<path d="M6.75 3.40149L13.85 13.0515" stroke="#0075FF"/>
<path d="M31.1 30.4016L40.95 37.8016" stroke="#0075FF"/>
<path d="M27.85 33.2015L35 43.0515" stroke="#0075FF"/>
<path d="M28.05 13.2515L34.8 3.30151" stroke="#0075FF"/>
<path d="M31 16.0515L40.95 8.75153" stroke="#0075FF"/>
<path d="M14.25 13.3515L27.85 33.3015" stroke="#0075FF"/>
<path d="M11.3 16.6515L30.9 30.5015" stroke="#0075FF"/>
<path d="M11.3 30.5016L31 16.1516" stroke="#0075FF"/>
<path d="M27.95 13.3515L13.95 33.2015" stroke="#0075FF"/>
<path d="M57.1667 42H53.9667L54.6667 37L54.4 36.0667C53.9333 34.5333 53.4556 33.0111 52.9667 31.5C52.5 29.9889 52.0333 28.4444 51.5667 26.8667H54.9667C55.1444 27.5778 55.3111 28.3 55.4667 29.0333C55.6444 29.7667 55.8111 30.4667 55.9667 31.1333C56.1222 31.7778 56.2556 32.3667 56.3667 32.9C56.4778 33.4333 56.5778 33.8556 56.6667 34.1667C56.6667 34.1667 56.8778 33.7444 57.3 32.9C57.5667 32.3667 57.8667 31.7778 58.2 31.1333C58.5333 30.4667 58.8889 29.7667 59.2667 29.0333L60.3333 26.8667H63.7667C62.8556 28.4444 61.9556 29.9889 61.0667 31.5C60.1778 33.0111 59.2889 34.5333 58.4 36.0667L57.8667 37L57.1667 42ZM70.1549 39.7667C71.0661 39.7667 71.7772 39.3111 72.2883 38.4C72.7994 37.4667 73.1661 36.1556 73.3883 34.4667C73.6327 32.7556 73.6216 31.4444 73.3549 30.5333C73.0883 29.6 72.5105 29.1333 71.6216 29.1333C70.7549 29.1333 70.0661 29.6 69.5549 30.5333C69.0438 31.4444 68.6661 32.7556 68.4216 34.4667C68.1772 36.1556 68.1772 37.4667 68.4216 38.4C68.6661 39.3111 69.2438 39.7667 70.1549 39.7667ZM71.9883 26.6C73.8549 26.6 75.1994 27.2333 76.0216 28.5C76.8438 29.7667 77.0661 31.7556 76.6883 34.4667C76.3105 37.1556 75.5327 39.1333 74.3549 40.4C73.1772 41.6667 71.6549 42.3 69.7883 42.3C65.9438 42.3 64.3883 39.6889 65.1216 34.4667C65.4994 31.7556 66.2772 29.7667 67.4549 28.5C68.6327 27.2333 70.1438 26.6 71.9883 26.6ZM85.847 29.8333C85.6914 30.2111 85.5137 30.6889 85.3137 31.2667C85.1137 31.8444 84.8914 32.4667 84.647 33.1333C84.4026 33.7778 84.147 34.4556 83.8803 35.1667C83.6359 35.8556 83.3803 36.5333 83.1137 37.2H86.3803C86.3359 36.5333 86.2803 35.8556 86.2137 35.1667C86.147 34.4556 86.0914 33.7778 86.047 33.1333C86.0026 32.4667 85.9581 31.8444 85.9137 31.2667C85.8692 30.6889 85.847 30.2111 85.847 29.8333ZM84.4137 26.8667H88.247L90.247 42H86.8803L86.5803 39.3667H82.347L81.2803 42H78.0803L84.4137 26.8667ZM95.5038 33.9L96.9038 33.9667C98.1705 33.9667 98.9261 33.1778 99.1705 31.6C99.4372 29.9778 98.8594 29.1667 97.4372 29.1667C97.1038 29.1667 96.6705 29.1889 96.1372 29.2333L95.5038 33.9ZM96.3372 36.2667L95.1705 36.2333L94.3705 42H91.3372L93.4705 26.8667C93.4705 26.8667 94.8261 26.8333 97.5372 26.7667C99.4705 26.7667 100.804 27.1333 101.537 27.8667C102.315 28.6 102.593 29.8667 102.371 31.6667C102.193 32.8667 101.804 33.8111 101.204 34.5C100.604 35.1667 99.9483 35.6111 99.2372 35.8333L101.337 42H97.9372L96.3372 36.2667Z" fill="#0075FF"/>
</svg>
