<svg width="969" height="540" viewBox="0 0 969 540" fill="none" xmlns="http://www.w3.org/2000/svg">
<path d="M563.68 93.68H534.24L517.28 214H486.56L503.2 93.68H473.44L476.64 68.72H567.52L563.68 93.68ZM633.823 90.8C632.329 90.8 630.836 90.8 629.343 90.8C627.849 90.8 626.249 90.9067 624.542 91.12L616.863 143.92H625.502C635.742 143.92 642.889 139.227 646.943 129.84C648.436 126.427 649.609 122.16 650.462 117.04C652.809 99.5467 647.262 90.8 633.823 90.8ZM597.982 68.72L636.062 67.76C654.836 67.76 667.636 71.92 674.463 80.24C681.502 88.56 683.742 100.827 681.183 117.04C678.836 134.32 672.223 147.227 661.343 155.76C652.169 162.8 639.796 166.32 624.222 166.32C622.516 166.32 620.809 166.32 619.102 166.32C617.396 166.32 615.689 166.213 613.982 166L607.262 214H577.502L597.982 68.72ZM749.901 89.84C749.901 89.84 746.808 89.9467 740.621 90.16L735.181 132.4H742.221C756.728 132.4 765.048 124.933 767.181 110C767.608 103.6 766.755 98.6933 764.621 95.28C762.488 91.6533 757.581 89.84 749.901 89.84ZM726.221 192.88L733.261 193.2C742.008 193.2 748.728 191.6 753.421 188.4C758.115 185.2 761.101 179.227 762.381 170.48C764.301 157.04 757.261 150.32 741.261 150.32H736.781C735.288 150.32 733.901 150.427 732.621 150.64L726.221 192.88ZM714.701 68.72L751.821 67.76C769.528 67.76 782.008 70.5333 789.261 76.08C796.515 81.4133 799.075 91.0133 796.941 104.88C795.661 113.2 792.888 120.24 788.621 126C784.355 131.547 779.875 135.707 775.181 138.48C789.048 142.533 794.915 153.733 792.781 172.08C790.435 187.013 784.461 198 774.861 205.04C765.475 211.867 751.395 215.28 732.621 215.28C724.728 215.28 717.261 215.067 710.221 214.64C703.395 214.213 698.061 214 694.221 214L714.701 68.72Z" fill="#0075FF"/>
<path d="M8 386.786V97.997L64.7073 40H345.805L408 97.997V386.786L345.805 440H64.7073L8 386.786Z" stroke="#0075FF" stroke-width="15"/>
<path d="M58 350.09V133.498L100.53 90H311.354L358 133.498V350.09L311.354 390H100.53L58 350.09Z" stroke="#0075FF" stroke-width="15"/>
<path d="M108 313.393V168.999L136.354 140H276.902L308 168.999V313.393L276.902 340H136.354L108 313.393Z" stroke="#0075FF" stroke-width="15"/>
<path d="M9 387.5L106 313.5" stroke="#0075FF" stroke-width="12"/>
<path d="M65.5 440L137.5 341.5" stroke="#0075FF" stroke-width="12"/>
<path d="M12.5 100L108 171" stroke="#0075FF" stroke-width="12"/>
<path d="M65.5 42.5L136.5 139" stroke="#0075FF" stroke-width="12"/>
<path d="M309 312.5L407.5 386.5" stroke="#0075FF" stroke-width="12"/>
<path d="M276.5 340.5L348 439" stroke="#0075FF" stroke-width="12"/>
<path d="M278.5 141L346 41.5" stroke="#0075FF" stroke-width="12"/>
<path d="M308 169L407.5 96" stroke="#0075FF" stroke-width="12"/>
<path d="M140.5 142L276.5 341.5" stroke="#0075FF" stroke-width="12"/>
<path d="M111 175L307 313.5" stroke="#0075FF" stroke-width="12"/>
<path d="M111 313.5L308 170" stroke="#0075FF" stroke-width="12"/>
<path d="M277.5 142L137.5 340.5" stroke="#0075FF" stroke-width="12"/>
<path d="M527.2 391H496.48L503.2 343L500.64 334.04C496.16 319.32 491.573 304.707 486.88 290.2C482.4 275.693 477.92 260.867 473.44 245.72H506.08C507.787 252.547 509.387 259.48 510.88 266.52C512.587 273.56 514.187 280.28 515.68 286.68C517.173 292.867 518.453 298.52 519.52 303.64C520.587 308.76 521.547 312.813 522.4 315.8C522.4 315.8 524.427 311.747 528.48 303.64C531.04 298.52 533.92 292.867 537.12 286.68C540.32 280.28 543.733 273.56 547.36 266.52L557.6 245.72H590.56C581.813 260.867 573.173 275.693 564.64 290.2C556.107 304.707 547.573 319.32 539.04 334.04L533.92 343L527.2 391ZM651.888 369.56C660.634 369.56 667.461 365.187 672.367 356.44C677.274 347.48 680.794 334.893 682.927 318.68C685.274 302.253 685.167 289.667 682.607 280.92C680.047 271.96 674.501 267.48 665.967 267.48C657.647 267.48 651.034 271.96 646.127 280.92C641.221 289.667 637.594 302.253 635.247 318.68C632.901 334.893 632.901 347.48 635.247 356.44C637.594 365.187 643.141 369.56 651.888 369.56ZM669.487 243.16C687.407 243.16 700.314 249.24 708.207 261.4C716.101 273.56 718.234 292.653 714.608 318.68C710.981 344.493 703.514 363.48 692.207 375.64C680.901 387.8 666.287 393.88 648.367 393.88C611.461 393.88 596.527 368.813 603.567 318.68C607.194 292.653 614.661 273.56 625.967 261.4C637.274 249.24 651.781 243.16 669.487 243.16ZM802.531 274.2C801.038 277.827 799.331 282.413 797.411 287.96C795.491 293.507 793.358 299.48 791.011 305.88C788.665 312.067 786.211 318.573 783.651 325.4C781.305 332.013 778.851 338.52 776.291 344.92H807.651C807.225 338.52 806.691 332.013 806.051 325.4C805.411 318.573 804.878 312.067 804.451 305.88C804.025 299.48 803.598 293.507 803.171 287.96C802.745 282.413 802.531 277.827 802.531 274.2ZM788.771 245.72H825.571L844.771 391H812.451L809.571 365.72H768.931L758.691 391H727.971L788.771 245.72ZM895.237 313.24L908.677 313.88C920.837 313.88 928.09 306.307 930.437 291.16C932.997 275.587 927.45 267.8 913.797 267.8C910.597 267.8 906.437 268.013 901.317 268.44L895.237 313.24ZM903.237 335.96L892.037 335.64L884.357 391H855.237L875.717 245.72C875.717 245.72 888.73 245.4 914.757 244.76C933.317 244.76 946.117 248.28 953.157 255.32C960.624 262.36 963.29 274.52 961.157 291.8C959.45 303.32 955.717 312.387 949.957 319C944.197 325.4 937.904 329.667 931.077 331.8L951.237 391H918.597L903.237 335.96Z" fill="#0075FF"/>
</svg>
