<svg width="18" height="18" viewBox="0 0 18 18" fill="none" xmlns="http://www.w3.org/2000/svg">
<path d="M1 14.8714V3.31988L3.26829 1H14.5122L17 3.31988V14.8714L14.5122 17H3.26829L1 14.8714Z" stroke="#0075FF"/>
<path d="M3 13.4036V4.73991L4.70122 3H13.1341L15 4.73991V13.4036L13.1341 15H4.70122L3 13.4036Z" stroke="#0075FF"/>
<path d="M5 11.9357V6.15994L6.13415 5H11.7561L13 6.15994V11.9357L11.7561 13H6.13415L5 11.9357Z" stroke="#0075FF"/>
<path d="M1.03999 14.9001L4.91999 11.9401" stroke="#0075FF" stroke-width="0.5"/>
<path d="M3.3 17.0001L6.18 13.0601" stroke="#0075FF" stroke-width="0.5"/>
<path d="M1.18 3.40002L5 6.24002" stroke="#0075FF" stroke-width="0.5"/>
<path d="M3.3 1.09998L6.14 4.95998" stroke="#0075FF" stroke-width="0.5"/>
<path d="M13.04 11.9L16.98 14.86" stroke="#0075FF" stroke-width="0.5"/>
<path d="M11.74 13.02L14.6 16.96" stroke="#0075FF" stroke-width="0.5"/>
<path d="M11.82 5.04006L14.52 1.06006" stroke="#0075FF" stroke-width="0.5"/>
<path d="M13 6.15999L16.98 3.23999" stroke="#0075FF" stroke-width="0.5"/>
<path d="M6.3 5.07996L11.74 13.06" stroke="#0075FF" stroke-width="0.5"/>
<path d="M5.12 6.40002L12.96 11.94" stroke="#0075FF" stroke-width="0.5"/>
<path d="M5.12 11.9401L13 6.20007" stroke="#0075FF" stroke-width="0.5"/>
<path d="M11.78 5.07996L6.18 13.02" stroke="#0075FF" stroke-width="0.5"/>
</svg>
