<svg width="416" height="416" viewBox="0 0 416 416" fill="none" xmlns="http://www.w3.org/2000/svg">
<path d="M8 354.786V65.997L64.7073 8H345.805L408 65.997V354.786L345.805 408H64.7073L8 354.786Z" stroke="#0075FF" stroke-width="15"/>
<path d="M58 318.09V101.498L100.53 58H311.354L358 101.498V318.09L311.354 358H100.53L58 318.09Z" stroke="#0075FF" stroke-width="15"/>
<path d="M108 281.393V136.999L136.354 108H276.902L308 136.999V281.393L276.902 308H136.354L108 281.393Z" stroke="#0075FF" stroke-width="15"/>
<path d="M9 355.5L106 281.5" stroke="#0075FF" stroke-width="12"/>
<path d="M65.5 408L137.5 309.5" stroke="#0075FF" stroke-width="12"/>
<path d="M12.5 68L108 139" stroke="#0075FF" stroke-width="12"/>
<path d="M65.5 10.5L136.5 107" stroke="#0075FF" stroke-width="12"/>
<path d="M309 280.5L407.5 354.5" stroke="#0075FF" stroke-width="12"/>
<path d="M276.5 308.5L348 407" stroke="#0075FF" stroke-width="12"/>
<path d="M278.5 109L346 9.5" stroke="#0075FF" stroke-width="12"/>
<path d="M308 137L407.5 64" stroke="#0075FF" stroke-width="12"/>
<path d="M140.5 110L276.5 309.5" stroke="#0075FF" stroke-width="12"/>
<path d="M111 143L307 281.5" stroke="#0075FF" stroke-width="12"/>
<path d="M111 281.5L308 138" stroke="#0075FF" stroke-width="12"/>
<path d="M277.5 110L137.5 308.5" stroke="#0075FF" stroke-width="12"/>
</svg>
