<svg width="17" height="17" viewBox="0 0 17 17" fill="none" xmlns="http://www.w3.org/2000/svg">
<path d="M8.5 0.732257L10.5743 2.95168L10.7294 3.11766L10.9565 3.10998L13.9926 3.00738L13.89 6.04351L13.8823 6.27056L14.0483 6.42569L16.2677 8.5L14.0483 10.5743L13.8823 10.7294L13.89 10.9565L13.9926 13.9926L10.9565 13.89L10.7294 13.8823L10.5743 14.0483L8.5 16.2677L6.42569 14.0483L6.27056 13.8823L6.04351 13.89L3.00738 13.9926L3.10998 10.9565L3.11766 10.7294L2.95168 10.5743L0.732257 8.5L2.95168 6.42569L3.11766 6.27056L3.10998 6.04351L3.00738 3.00738L6.04351 3.10998L6.27056 3.11766L6.42569 2.95168L8.5 0.732257Z" stroke="#E4E4E4"/>
<circle cx="8.5" cy="8.5" r="4.25" fill="#D9D9D9"/>
</svg>
